<svg width="502" height="68" viewBox="0 0 502 68" fill="none" xmlns="http://www.w3.org/2000/svg">
<rect x="1.25" y="1.25" width="499.159" height="65.5" rx="15.75" fill="#283036" stroke="url(#paint0_linear_3_41)" stroke-width="1.5"/>
<rect x="358.187" y="10" width="130.435" height="48" rx="8" fill="#FF6E30"/>
<path d="M399.268 40.112C398.489 40.112 397.785 39.9787 397.156 39.712C396.537 39.4453 396.046 39.0613 395.684 38.56C395.321 38.0587 395.134 37.4667 395.124 36.784H397.524C397.556 37.2427 397.716 37.6053 398.004 37.872C398.302 38.1387 398.708 38.272 399.22 38.272C399.742 38.272 400.153 38.1493 400.452 37.904C400.75 37.648 400.9 37.3173 400.9 36.912C400.9 36.5813 400.798 36.3093 400.596 36.096C400.393 35.8827 400.137 35.7173 399.828 35.6C399.529 35.472 399.113 35.3333 398.58 35.184C397.854 34.9707 397.262 34.7627 396.804 34.56C396.356 34.3467 395.966 34.032 395.636 33.616C395.316 33.1893 395.156 32.624 395.156 31.92C395.156 31.2587 395.321 30.6827 395.652 30.192C395.982 29.7013 396.446 29.328 397.044 29.072C397.641 28.8053 398.324 28.672 399.092 28.672C400.244 28.672 401.177 28.9547 401.892 29.52C402.617 30.0747 403.017 30.8533 403.092 31.856H400.628C400.606 31.472 400.441 31.1573 400.132 30.912C399.833 30.656 399.433 30.528 398.932 30.528C398.494 30.528 398.142 30.64 397.876 30.864C397.62 31.088 397.492 31.4133 397.492 31.84C397.492 32.1387 397.588 32.3893 397.78 32.592C397.982 32.784 398.228 32.944 398.516 33.072C398.814 33.1893 399.23 33.328 399.764 33.488C400.489 33.7013 401.081 33.9147 401.54 34.128C401.998 34.3413 402.393 34.6613 402.724 35.088C403.054 35.5147 403.22 36.0747 403.22 36.768C403.22 37.3653 403.065 37.92 402.756 38.432C402.446 38.944 401.993 39.3547 401.396 39.664C400.798 39.9627 400.089 40.112 399.268 40.112ZM413.402 35.376C413.402 35.696 413.38 35.984 413.338 36.24H406.858C406.911 36.88 407.135 37.3813 407.53 37.744C407.924 38.1067 408.41 38.288 408.986 38.288C409.818 38.288 410.41 37.9307 410.762 37.216H413.178C412.922 38.0693 412.431 38.7733 411.706 39.328C410.98 39.872 410.09 40.144 409.034 40.144C408.18 40.144 407.412 39.9573 406.73 39.584C406.058 39.2 405.53 38.6613 405.146 37.968C404.772 37.2747 404.586 36.4747 404.586 35.568C404.586 34.6507 404.772 33.8453 405.146 33.152C405.519 32.4587 406.042 31.9253 406.714 31.552C407.386 31.1787 408.159 30.992 409.034 30.992C409.876 30.992 410.628 31.1733 411.29 31.536C411.962 31.8987 412.479 32.416 412.842 33.088C413.215 33.7493 413.402 34.512 413.402 35.376ZM411.082 34.736C411.071 34.16 410.863 33.7013 410.458 33.36C410.052 33.008 409.556 32.832 408.97 32.832C408.415 32.832 407.946 33.0027 407.562 33.344C407.188 33.6747 406.959 34.1387 406.874 34.736H411.082ZM414.461 35.536C414.461 34.64 414.637 33.8453 414.989 33.152C415.351 32.4587 415.837 31.9253 416.445 31.552C417.063 31.1787 417.751 30.992 418.509 30.992C419.17 30.992 419.746 31.1253 420.237 31.392C420.738 31.6587 421.138 31.9947 421.437 32.4V31.136H423.693V40H421.437V38.704C421.149 39.12 420.749 39.4667 420.237 39.744C419.735 40.0107 419.154 40.144 418.493 40.144C417.746 40.144 417.063 39.952 416.445 39.568C415.837 39.184 415.351 38.6453 414.989 37.952C414.637 37.248 414.461 36.4427 414.461 35.536ZM421.437 35.568C421.437 35.024 421.33 34.56 421.117 34.176C420.903 33.7813 420.615 33.4827 420.253 33.28C419.89 33.0667 419.501 32.96 419.085 32.96C418.669 32.96 418.285 33.0613 417.933 33.264C417.581 33.4667 417.293 33.7653 417.069 34.16C416.855 34.544 416.749 35.0027 416.749 35.536C416.749 36.0693 416.855 36.5387 417.069 36.944C417.293 37.3387 417.581 37.6427 417.933 37.856C418.295 38.0693 418.679 38.176 419.085 38.176C419.501 38.176 419.89 38.0747 420.253 37.872C420.615 37.6587 420.903 37.36 421.117 36.976C421.33 36.5813 421.437 36.112 421.437 35.568ZM428.12 32.512C428.408 32.0427 428.782 31.6747 429.24 31.408C429.71 31.1413 430.243 31.008 430.84 31.008V33.36H430.248C429.544 33.36 429.011 33.5253 428.648 33.856C428.296 34.1867 428.12 34.7627 428.12 35.584V40H425.88V31.136H428.12V32.512ZM431.773 35.568C431.773 34.6507 431.96 33.8507 432.333 33.168C432.707 32.4747 433.224 31.9413 433.885 31.568C434.547 31.184 435.304 30.992 436.157 30.992C437.256 30.992 438.163 31.2693 438.877 31.824C439.603 32.368 440.088 33.136 440.333 34.128H437.917C437.789 33.744 437.571 33.4453 437.261 33.232C436.963 33.008 436.589 32.896 436.141 32.896C435.501 32.896 434.995 33.1307 434.621 33.6C434.248 34.0587 434.061 34.7147 434.061 35.568C434.061 36.4107 434.248 37.0667 434.621 37.536C434.995 37.9947 435.501 38.224 436.141 38.224C437.048 38.224 437.64 37.8187 437.917 37.008H440.333C440.088 37.968 439.603 38.7307 438.877 39.296C438.152 39.8613 437.245 40.144 436.157 40.144C435.304 40.144 434.547 39.9573 433.885 39.584C433.224 39.2 432.707 38.6667 432.333 37.984C431.96 37.2907 431.773 36.4853 431.773 35.568ZM446.966 31.008C447.638 31.008 448.236 31.1573 448.758 31.456C449.281 31.744 449.686 32.176 449.974 32.752C450.273 33.3173 450.422 34 450.422 34.8V40H448.182V35.104C448.182 34.4 448.006 33.8613 447.654 33.488C447.302 33.104 446.822 32.912 446.214 32.912C445.596 32.912 445.105 33.104 444.742 33.488C444.39 33.8613 444.214 34.4 444.214 35.104V40H441.974V28.16H444.214V32.24C444.502 31.856 444.886 31.5573 445.366 31.344C445.846 31.12 446.38 31.008 446.966 31.008Z" fill="white"/>
<path d="M31 41C35.4183 41 39 37.4183 39 33C39 28.5817 35.4183 25 31 25C26.5817 25 23 28.5817 23 33C23 37.4183 26.5817 41 31 41Z" stroke="white" stroke-opacity="0.38" stroke-width="2" stroke-linecap="round" stroke-linejoin="round"/>
<path d="M41 42.9999L36.65 38.6499" stroke="white" stroke-opacity="0.38" stroke-width="2" stroke-linecap="round" stroke-linejoin="round"/>
<path d="M61.3839 31.378H59.7739V38H58.4999V31.378H57.5059V30.328H58.4999V29.782C58.4999 28.9233 58.7193 28.298 59.1579 27.906C59.6059 27.5047 60.3199 27.304 61.2999 27.304V28.368C60.7399 28.368 60.3433 28.48 60.1099 28.704C59.8859 28.9187 59.7739 29.278 59.7739 29.782V30.328H61.3839V31.378ZM63.5274 29.082C63.2847 29.082 63.0794 28.998 62.9114 28.83C62.7434 28.662 62.6594 28.4567 62.6594 28.214C62.6594 27.9713 62.7434 27.766 62.9114 27.598C63.0794 27.43 63.2847 27.346 63.5274 27.346C63.7607 27.346 63.9567 27.43 64.1154 27.598C64.2834 27.766 64.3674 27.9713 64.3674 28.214C64.3674 28.4567 64.2834 28.662 64.1154 28.83C63.9567 28.998 63.7607 29.082 63.5274 29.082ZM64.1434 30.328V38H62.8694V30.328H64.1434ZM70.0527 30.188C70.986 30.188 71.742 30.4727 72.3207 31.042C72.8993 31.602 73.1887 32.414 73.1887 33.478V38H71.9287V33.66C71.9287 32.8947 71.7373 32.3113 71.3547 31.91C70.972 31.4993 70.4493 31.294 69.7867 31.294C69.1147 31.294 68.578 31.504 68.1767 31.924C67.7847 32.344 67.5887 32.9553 67.5887 33.758V38H66.3147V30.328H67.5887V31.42C67.8407 31.028 68.1813 30.7247 68.6107 30.51C69.0493 30.2953 69.53 30.188 70.0527 30.188ZM74.7938 34.136C74.7938 33.352 74.9524 32.666 75.2698 32.078C75.5871 31.4807 76.0211 31.0187 76.5718 30.692C77.1318 30.3653 77.7571 30.202 78.4478 30.202C79.0451 30.202 79.6004 30.342 80.1138 30.622C80.6271 30.8927 81.0191 31.252 81.2898 31.7V27.64H82.5778V38H81.2898V36.558C81.0378 37.0153 80.6644 37.3933 80.1698 37.692C79.6751 37.9813 79.0964 38.126 78.4338 38.126C77.7524 38.126 77.1318 37.958 76.5718 37.622C76.0211 37.286 75.5871 36.8147 75.2698 36.208C74.9524 35.6013 74.7938 34.9107 74.7938 34.136ZM81.2898 34.15C81.2898 33.5713 81.1731 33.0673 80.9398 32.638C80.7064 32.2087 80.3891 31.882 79.9878 31.658C79.5958 31.4247 79.1618 31.308 78.6858 31.308C78.2098 31.308 77.7758 31.42 77.3838 31.644C76.9918 31.868 76.6791 32.1947 76.4458 32.624C76.2124 33.0533 76.0958 33.5573 76.0958 34.136C76.0958 34.724 76.2124 35.2373 76.4458 35.676C76.6791 36.1053 76.9918 36.4367 77.3838 36.67C77.7758 36.894 78.2098 37.006 78.6858 37.006C79.1618 37.006 79.5958 36.894 79.9878 36.67C80.3891 36.4367 80.7064 36.1053 80.9398 35.676C81.1731 35.2373 81.2898 34.7287 81.2898 34.15ZM97.6891 30.188C98.2865 30.188 98.8185 30.314 99.2851 30.566C99.7518 30.8087 100.12 31.1773 100.391 31.672C100.662 32.1667 100.797 32.7687 100.797 33.478V38H99.5371V33.66C99.5371 32.8947 99.3458 32.3113 98.9631 31.91C98.5898 31.4993 98.0811 31.294 97.4371 31.294C96.7745 31.294 96.2471 31.5087 95.8551 31.938C95.4631 32.358 95.2671 32.9693 95.2671 33.772V38H94.0071V33.66C94.0071 32.8947 93.8158 32.3113 93.4331 31.91C93.0598 31.4993 92.5511 31.294 91.9071 31.294C91.2445 31.294 90.7171 31.5087 90.3251 31.938C89.9331 32.358 89.7371 32.9693 89.7371 33.772V38H88.4631V30.328H89.7371V31.434C89.9891 31.0327 90.3251 30.7247 90.7451 30.51C91.1745 30.2953 91.6458 30.188 92.1591 30.188C92.8031 30.188 93.3725 30.3327 93.8671 30.622C94.3618 30.9113 94.7305 31.336 94.9731 31.896C95.1878 31.3547 95.5425 30.9347 96.0371 30.636C96.5318 30.3373 97.0825 30.188 97.6891 30.188ZM106.233 38.126C105.514 38.126 104.861 37.9627 104.273 37.636C103.694 37.3093 103.237 36.8473 102.901 36.25C102.574 35.6433 102.411 34.9433 102.411 34.15C102.411 33.366 102.579 32.6753 102.915 32.078C103.26 31.4713 103.727 31.0093 104.315 30.692C104.903 30.3653 105.561 30.202 106.289 30.202C107.017 30.202 107.675 30.3653 108.263 30.692C108.851 31.0093 109.313 31.4667 109.649 32.064C109.994 32.6613 110.167 33.3567 110.167 34.15C110.167 34.9433 109.99 35.6433 109.635 36.25C109.29 36.8473 108.818 37.3093 108.221 37.636C107.624 37.9627 106.961 38.126 106.233 38.126ZM106.233 37.006C106.69 37.006 107.12 36.8987 107.521 36.684C107.922 36.4693 108.244 36.1473 108.487 35.718C108.739 35.2887 108.865 34.766 108.865 34.15C108.865 33.534 108.744 33.0113 108.501 32.582C108.258 32.1527 107.941 31.8353 107.549 31.63C107.157 31.4153 106.732 31.308 106.275 31.308C105.808 31.308 105.379 31.4153 104.987 31.63C104.604 31.8353 104.296 32.1527 104.063 32.582C103.83 33.0113 103.713 33.534 103.713 34.15C103.713 34.7753 103.825 35.3027 104.049 35.732C104.282 36.1613 104.59 36.4833 104.973 36.698C105.356 36.9033 105.776 37.006 106.233 37.006ZM113.116 31.574C113.34 31.1353 113.657 30.7947 114.068 30.552C114.488 30.3093 114.997 30.188 115.594 30.188V31.504H115.258C113.83 31.504 113.116 32.2787 113.116 33.828V38H111.842V30.328H113.116V31.574ZM124.065 33.87C124.065 34.1127 124.051 34.3693 124.023 34.64H117.891C117.937 35.396 118.194 35.9887 118.661 36.418C119.137 36.838 119.711 37.048 120.383 37.048C120.933 37.048 121.391 36.922 121.755 36.67C122.128 36.4087 122.389 36.0633 122.539 35.634H123.911C123.705 36.3713 123.295 36.9733 122.679 37.44C122.063 37.8973 121.297 38.126 120.383 38.126C119.655 38.126 119.001 37.9627 118.423 37.636C117.853 37.3093 117.405 36.8473 117.079 36.25C116.752 35.6433 116.589 34.9433 116.589 34.15C116.589 33.3567 116.747 32.6613 117.065 32.064C117.382 31.4667 117.825 31.0093 118.395 30.692C118.973 30.3653 119.636 30.202 120.383 30.202C121.111 30.202 121.755 30.3607 122.315 30.678C122.875 30.9953 123.304 31.434 123.603 31.994C123.911 32.5447 124.065 33.17 124.065 33.87ZM122.749 33.604C122.749 33.1187 122.641 32.7033 122.427 32.358C122.212 32.0033 121.918 31.7373 121.545 31.56C121.181 31.3733 120.775 31.28 120.327 31.28C119.683 31.28 119.132 31.4853 118.675 31.896C118.227 32.3067 117.97 32.876 117.905 33.604H122.749ZM131.033 31.378V35.9C131.033 36.2733 131.112 36.5393 131.271 36.698C131.429 36.8473 131.705 36.922 132.097 36.922H133.035V38H131.887C131.177 38 130.645 37.8367 130.291 37.51C129.936 37.1833 129.759 36.6467 129.759 35.9V31.378H128.765V30.328H129.759V28.396H131.033V30.328H133.035V31.378H131.033ZM138.386 30.188C138.965 30.188 139.488 30.314 139.954 30.566C140.421 30.8087 140.785 31.1773 141.046 31.672C141.317 32.1667 141.452 32.7687 141.452 33.478V38H140.192V33.66C140.192 32.8947 140.001 32.3113 139.618 31.91C139.236 31.4993 138.713 31.294 138.05 31.294C137.378 31.294 136.842 31.504 136.44 31.924C136.048 32.344 135.852 32.9553 135.852 33.758V38H134.578V27.64H135.852V31.42C136.104 31.028 136.45 30.7247 136.888 30.51C137.336 30.2953 137.836 30.188 138.386 30.188ZM143.057 34.136C143.057 33.352 143.216 32.666 143.533 32.078C143.851 31.4807 144.285 31.0187 144.835 30.692C145.395 30.3653 146.016 30.202 146.697 30.202C147.369 30.202 147.953 30.3467 148.447 30.636C148.942 30.9253 149.311 31.2893 149.553 31.728V30.328H150.841V38H149.553V36.572C149.301 37.02 148.923 37.3933 148.419 37.692C147.925 37.9813 147.346 38.126 146.683 38.126C146.002 38.126 145.386 37.958 144.835 37.622C144.285 37.286 143.851 36.8147 143.533 36.208C143.216 35.6013 143.057 34.9107 143.057 34.136ZM149.553 34.15C149.553 33.5713 149.437 33.0673 149.203 32.638C148.97 32.2087 148.653 31.882 148.251 31.658C147.859 31.4247 147.425 31.308 146.949 31.308C146.473 31.308 146.039 31.42 145.647 31.644C145.255 31.868 144.943 32.1947 144.709 32.624C144.476 33.0533 144.359 33.5573 144.359 34.136C144.359 34.724 144.476 35.2373 144.709 35.676C144.943 36.1053 145.255 36.4367 145.647 36.67C146.039 36.894 146.473 37.006 146.949 37.006C147.425 37.006 147.859 36.894 148.251 36.67C148.653 36.4367 148.97 36.1053 149.203 35.676C149.437 35.2373 149.553 34.7287 149.553 34.15ZM156.732 30.188C157.666 30.188 158.422 30.4727 159 31.042C159.579 31.602 159.868 32.414 159.868 33.478V38H158.608V33.66C158.608 32.8947 158.417 32.3113 158.034 31.91C157.652 31.4993 157.129 31.294 156.466 31.294C155.794 31.294 155.258 31.504 154.856 31.924C154.464 32.344 154.268 32.9553 154.268 33.758V38H152.994V30.328H154.268V31.42C154.52 31.028 154.861 30.7247 155.29 30.51C155.729 30.2953 156.21 30.188 156.732 30.188ZM165.164 35.746V34.78L170.078 27.976H171.604V34.64H173.004V35.746H171.604V38H170.344V35.746H165.164ZM170.4 29.306L166.634 34.64H170.4V29.306ZM174.249 30.426C174.314 29.5673 174.645 28.8953 175.243 28.41C175.84 27.9247 176.615 27.682 177.567 27.682C178.201 27.682 178.747 27.7987 179.205 28.032C179.671 28.256 180.021 28.564 180.255 28.956C180.497 29.348 180.619 29.7913 180.619 30.286C180.619 30.8647 180.451 31.364 180.115 31.784C179.788 32.204 179.359 32.4747 178.827 32.596V32.666C179.433 32.8153 179.914 33.1093 180.269 33.548C180.623 33.9867 180.801 34.5607 180.801 35.27C180.801 35.802 180.679 36.2827 180.437 36.712C180.194 37.132 179.83 37.4633 179.345 37.706C178.859 37.9487 178.276 38.07 177.595 38.07C176.605 38.07 175.793 37.8133 175.159 37.3C174.524 36.7773 174.169 36.04 174.095 35.088H175.327C175.392 35.648 175.621 36.1053 176.013 36.46C176.405 36.8147 176.927 36.992 177.581 36.992C178.234 36.992 178.729 36.824 179.065 36.488C179.41 36.1427 179.583 35.6993 179.583 35.158C179.583 34.458 179.349 33.954 178.883 33.646C178.416 33.338 177.711 33.184 176.769 33.184H176.447V32.12H176.783C177.641 32.1107 178.29 31.9707 178.729 31.7C179.167 31.42 179.387 30.9907 179.387 30.412C179.387 29.9173 179.223 29.5207 178.897 29.222C178.579 28.9233 178.122 28.774 177.525 28.774C176.946 28.774 176.479 28.9233 176.125 29.222C175.77 29.5207 175.56 29.922 175.495 30.426H174.249ZM182.521 32.834C182.521 31.2287 182.782 29.978 183.305 29.082C183.827 28.1767 184.742 27.724 186.049 27.724C187.346 27.724 188.256 28.1767 188.779 29.082C189.301 29.978 189.563 31.2287 189.563 32.834C189.563 34.4673 189.301 35.7367 188.779 36.642C188.256 37.5473 187.346 38 186.049 38C184.742 38 183.827 37.5473 183.305 36.642C182.782 35.7367 182.521 34.4673 182.521 32.834ZM188.303 32.834C188.303 32.022 188.247 31.336 188.135 30.776C188.032 30.2067 187.813 29.7493 187.477 29.404C187.15 29.0587 186.674 28.886 186.049 28.886C185.414 28.886 184.929 29.0587 184.593 29.404C184.266 29.7493 184.047 30.2067 183.935 30.776C183.832 31.336 183.781 32.022 183.781 32.834C183.781 33.674 183.832 34.3787 183.935 34.948C184.047 35.5173 184.266 35.9747 184.593 36.32C184.929 36.6653 185.414 36.838 186.049 36.838C186.674 36.838 187.15 36.6653 187.477 36.32C187.813 35.9747 188.032 35.5173 188.135 34.948C188.247 34.3787 188.303 33.674 188.303 32.834ZM198.802 33.422H195.82V36.446H194.63V33.422H191.662V32.344H194.63V29.306H195.82V32.344H198.802V33.422ZM206.365 31.378V35.9C206.365 36.2733 206.444 36.5393 206.603 36.698C206.761 36.8473 207.037 36.922 207.429 36.922H208.367V38H207.219C206.509 38 205.977 37.8367 205.623 37.51C205.268 37.1833 205.091 36.6467 205.091 35.9V31.378H204.097V30.328H205.091V28.396H206.365V30.328H208.367V31.378H206.365ZM213.256 38.126C212.538 38.126 211.884 37.9627 211.296 37.636C210.718 37.3093 210.26 36.8473 209.924 36.25C209.598 35.6433 209.434 34.9433 209.434 34.15C209.434 33.366 209.602 32.6753 209.938 32.078C210.284 31.4713 210.75 31.0093 211.338 30.692C211.926 30.3653 212.584 30.202 213.312 30.202C214.04 30.202 214.698 30.3653 215.286 30.692C215.874 31.0093 216.336 31.4667 216.672 32.064C217.018 32.6613 217.19 33.3567 217.19 34.15C217.19 34.9433 217.013 35.6433 216.658 36.25C216.313 36.8473 215.842 37.3093 215.244 37.636C214.647 37.9627 213.984 38.126 213.256 38.126ZM213.256 37.006C213.714 37.006 214.143 36.8987 214.544 36.684C214.946 36.4693 215.268 36.1473 215.51 35.718C215.762 35.2887 215.888 34.766 215.888 34.15C215.888 33.534 215.767 33.0113 215.524 32.582C215.282 32.1527 214.964 31.8353 214.572 31.63C214.18 31.4153 213.756 31.308 213.298 31.308C212.832 31.308 212.402 31.4153 212.01 31.63C211.628 31.8353 211.32 32.1527 211.086 32.582C210.853 33.0113 210.736 33.534 210.736 34.15C210.736 34.7753 210.848 35.3027 211.072 35.732C211.306 36.1613 211.614 36.4833 211.996 36.698C212.379 36.9033 212.799 37.006 213.256 37.006ZM222.211 38.126C221.493 38.126 220.839 37.9627 220.251 37.636C219.673 37.3093 219.215 36.8473 218.879 36.25C218.553 35.6433 218.389 34.9433 218.389 34.15C218.389 33.366 218.557 32.6753 218.893 32.078C219.239 31.4713 219.705 31.0093 220.293 30.692C220.881 30.3653 221.539 30.202 222.267 30.202C222.995 30.202 223.653 30.3653 224.241 30.692C224.829 31.0093 225.291 31.4667 225.627 32.064C225.973 32.6613 226.145 33.3567 226.145 34.15C226.145 34.9433 225.968 35.6433 225.613 36.25C225.268 36.8473 224.797 37.3093 224.199 37.636C223.602 37.9627 222.939 38.126 222.211 38.126ZM222.211 37.006C222.669 37.006 223.098 36.8987 223.499 36.684C223.901 36.4693 224.223 36.1473 224.465 35.718C224.717 35.2887 224.843 34.766 224.843 34.15C224.843 33.534 224.722 33.0113 224.479 32.582C224.237 32.1527 223.919 31.8353 223.527 31.63C223.135 31.4153 222.711 31.308 222.253 31.308C221.787 31.308 221.357 31.4153 220.965 31.63C220.583 31.8353 220.275 32.1527 220.041 32.582C219.808 33.0113 219.691 33.534 219.691 34.15C219.691 34.7753 219.803 35.3027 220.027 35.732C220.261 36.1613 220.569 36.4833 220.951 36.698C221.334 36.9033 221.754 37.006 222.211 37.006ZM229.095 27.64V38H227.821V27.64H229.095ZM233.982 38.126C233.394 38.126 232.867 38.028 232.4 37.832C231.933 37.6267 231.565 37.3467 231.294 36.992C231.023 36.628 230.874 36.2127 230.846 35.746H232.162C232.199 36.1287 232.377 36.4413 232.694 36.684C233.021 36.9267 233.445 37.048 233.968 37.048C234.453 37.048 234.836 36.9407 235.116 36.726C235.396 36.5113 235.536 36.2407 235.536 35.914C235.536 35.578 235.387 35.3307 235.088 35.172C234.789 35.004 234.327 34.8407 233.702 34.682C233.133 34.5327 232.666 34.3833 232.302 34.234C231.947 34.0753 231.639 33.8467 231.378 33.548C231.126 33.24 231 32.8387 231 32.344C231 31.952 231.117 31.5927 231.35 31.266C231.583 30.9393 231.915 30.6827 232.344 30.496C232.773 30.3 233.263 30.202 233.814 30.202C234.663 30.202 235.349 30.4167 235.872 30.846C236.395 31.2753 236.675 31.8633 236.712 32.61H235.438C235.41 32.2087 235.247 31.8867 234.948 31.644C234.659 31.4013 234.267 31.28 233.772 31.28C233.315 31.28 232.951 31.378 232.68 31.574C232.409 31.77 232.274 32.0267 232.274 32.344C232.274 32.596 232.353 32.806 232.512 32.974C232.68 33.1327 232.885 33.2633 233.128 33.366C233.38 33.4593 233.725 33.5667 234.164 33.688C234.715 33.8373 235.163 33.9867 235.508 34.136C235.853 34.276 236.147 34.4907 236.39 34.78C236.642 35.0693 236.773 35.4473 236.782 35.914C236.782 36.334 236.665 36.712 236.432 37.048C236.199 37.384 235.867 37.65 235.438 37.846C235.018 38.0327 234.533 38.126 233.982 38.126ZM238.986 38.084C238.744 38.084 238.538 38 238.37 37.832C238.202 37.664 238.118 37.4587 238.118 37.216C238.118 36.9733 238.202 36.768 238.37 36.6C238.538 36.432 238.744 36.348 238.986 36.348C239.22 36.348 239.416 36.432 239.574 36.6C239.742 36.768 239.826 36.9733 239.826 37.216C239.826 37.4587 239.742 37.664 239.574 37.832C239.416 38 239.22 38.084 238.986 38.084ZM241.926 38.084C241.683 38.084 241.478 38 241.31 37.832C241.142 37.664 241.058 37.4587 241.058 37.216C241.058 36.9733 241.142 36.768 241.31 36.6C241.478 36.432 241.683 36.348 241.926 36.348C242.159 36.348 242.355 36.432 242.514 36.6C242.682 36.768 242.766 36.9733 242.766 37.216C242.766 37.4587 242.682 37.664 242.514 37.832C242.355 38 242.159 38.084 241.926 38.084ZM244.865 38.084C244.623 38.084 244.417 38 244.249 37.832C244.081 37.664 243.997 37.4587 243.997 37.216C243.997 36.9733 244.081 36.768 244.249 36.6C244.417 36.432 244.623 36.348 244.865 36.348C245.099 36.348 245.295 36.432 245.453 36.6C245.621 36.768 245.705 36.9733 245.705 37.216C245.705 37.4587 245.621 37.664 245.453 37.832C245.295 38 245.099 38.084 244.865 38.084Z" fill="white" fill-opacity="0.38"/>
<line x1="57.9339" y1="25.75" x2="57.9339" y2="40.25" stroke="#837A93" stroke-width="1.5" stroke-linecap="round"/>
<defs>
<linearGradient id="paint0_linear_3_41" x1="-6.44332" y1="2.00004" x2="518.633" y2="65.1614" gradientUnits="userSpaceOnUse">
<stop stop-color="white" stop-opacity="0.1"/>
<stop offset="1" stop-color="white" stop-opacity="0"/>
</linearGradient>
</defs>
</svg>
